# xmcd CD database file
#
# Track frame offsets:
#	150
#	23814
#	40756
#	61591
#	85129
#	102255
#	119794
#	139200
#	159698
#	175656
#
# Disc length: 2704 seconds
#
# Revision: 7
# Processed by: cddbd v1.4PL0 Copyright (c) Steve Scherf et al.
# Submitted via: CDex 1.40Release
#
DISCID=7e0a8e0a
DTITLE=張惠妹 - 發燒
DYEAR=2002
DGENRE=國語流行
TTITLE0=發燒
TTITLE1=狠角色
TTITLE2=知道
TTITLE3=下一個人
TTITLE4=54321
TTITLE5=跟我一起瘋
TTITLE6=別去打擾他的心
TTITLE7=聽見了嗎
TTITLE8=Yes or No
TTITLE9=Katsu
EXTD=YEAR: 2002
EXTT0=
EXTT1=
EXTT2=
EXTT3=
EXTT4=
EXTT5=
EXTT6=
EXTT7=
EXTT8=
EXTT9=
PLAYORDER=
